<svg width="24" height="24" viewBox="0 0 24 24" fill="none" xmlns="http://www.w3.org/2000/svg">
<g clip-path="url(#clip0_1_4726)">
<path d="M7.99932 10.7601H7.41932C6.62783 10.7315 5.8389 10.8659 5.10149 11.1549C4.36409 11.4439 3.69395 11.8813 3.13266 12.4401L2.97266 12.6268V18.1468H5.69266V15.0135L6.05932 14.6001L6.22599 14.4068C7.09394 13.5151 8.17451 12.859 9.36599 12.5001C8.76945 12.0462 8.29898 11.4472 7.99932 10.7601Z" fill="#00FFFF"/>
<path d="M20.8935 12.42C20.3323 11.8612 19.6621 11.4237 18.9247 11.1347C18.1873 10.8457 17.3984 10.7114 16.6069 10.74C16.3641 10.7407 16.1216 10.754 15.8802 10.78C15.5749 11.4246 15.1173 11.9852 14.5469 12.4133C15.8189 12.7652 16.9711 13.4566 17.8802 14.4133L18.0469 14.6L18.4069 15.0133V18.1533H21.0335V12.6066L20.8935 12.42Z" fill="#00FFFF"/>
<path d="M7.39992 9.45999H7.60658C7.51056 8.63549 7.65523 7.80081 8.02314 7.05672C8.39104 6.31263 8.96645 5.69092 9.67992 5.26666C9.42129 4.87156 9.06449 4.5504 8.64445 4.33462C8.22441 4.11885 7.75554 4.01586 7.28374 4.03574C6.81194 4.05563 6.35339 4.1977 5.95299 4.44804C5.5526 4.69839 5.22408 5.04843 4.99962 5.46389C4.77515 5.87935 4.66243 6.34598 4.67249 6.81809C4.68256 7.2902 4.81506 7.75161 5.05702 8.15713C5.29898 8.56264 5.64211 8.89837 6.05281 9.13143C6.46351 9.36449 6.9277 9.4869 7.39992 9.48666V9.45999Z" fill="#00FFFF"/>
<path d="M16.2858 8.96004C16.2939 9.11326 16.2939 9.26681 16.2858 9.42004C16.4138 9.44032 16.543 9.45146 16.6725 9.45337H16.7992C17.2693 9.4283 17.725 9.28193 18.1217 9.02849C18.5185 8.77506 18.8429 8.4232 19.0633 8.00718C19.2838 7.59116 19.3927 7.12515 19.3796 6.65453C19.3665 6.1839 19.2317 5.72469 18.9884 5.32161C18.7451 4.91853 18.4016 4.58531 17.9913 4.35439C17.581 4.12347 17.1179 4.00273 16.6471 4.00391C16.1763 4.0051 15.7138 4.12817 15.3047 4.36115C14.8956 4.59413 14.5538 4.92907 14.3125 5.33337C14.9159 5.72733 15.412 6.26491 15.7565 6.89788C16.1009 7.53086 16.2828 8.23943 16.2858 8.96004Z" fill="#00FFFF"/>
<path d="M11.9136 11.9466C13.5594 11.9466 14.8936 10.6124 14.8936 8.96657C14.8936 7.32076 13.5594 5.98657 11.9136 5.98657C10.2678 5.98657 8.93359 7.32076 8.93359 8.96657C8.93359 10.6124 10.2678 11.9466 11.9136 11.9466Z" fill="#00FFFF"/>
<path d="M12.0746 13.5333C11.204 13.4982 10.3352 13.6395 9.52066 13.9489C8.70607 14.2582 7.96248 14.7291 7.33464 15.3333L7.16797 15.52V19.74C7.17057 19.8774 7.20023 20.013 7.25524 20.139C7.31026 20.265 7.38956 20.379 7.48862 20.4743C7.58767 20.5696 7.70454 20.6445 7.83254 20.6947C7.96055 20.7449 8.09718 20.7693 8.23464 20.7667H15.8946C16.0321 20.7693 16.1687 20.7449 16.2967 20.6947C16.4247 20.6445 16.5416 20.5696 16.6407 20.4743C16.7397 20.379 16.819 20.265 16.874 20.139C16.929 20.013 16.9587 19.8774 16.9613 19.74V15.5333L16.8013 15.3333C16.1775 14.7273 15.4365 14.255 14.6237 13.9455C13.811 13.636 12.9435 13.4957 12.0746 13.5333Z" fill="#00FFFF"/>
</g>
<defs>
<clipPath id="clip0_1_4726">
<rect width="24" height="24" fill="white"/>
</clipPath>
</defs>
</svg>
