<svg width="24" height="24" viewBox="0 0 24 24" fill="none" xmlns="http://www.w3.org/2000/svg">
<g clip-path="url(#clip0_1_4744)">
<path d="M10.4993 2C12.0952 1.99989 13.659 2.44911 15.0116 3.29623C16.3642 4.14336 17.4509 5.35417 18.1475 6.79009C18.8441 8.22602 19.1223 9.82905 18.9504 11.4157C18.7784 13.0024 18.1633 14.5086 17.1753 15.762L20.8273 19.414C21.0094 19.6026 21.1102 19.8552 21.108 20.1174C21.1057 20.3796 21.0005 20.6304 20.8151 20.8158C20.6297 21.0012 20.3789 21.1064 20.1167 21.1087C19.8545 21.111 19.6019 21.0102 19.4133 20.828L15.7613 17.176C14.6967 18.015 13.447 18.5872 12.1163 18.8449C10.7856 19.1026 9.4126 19.0384 8.11179 18.6576C6.81098 18.2768 5.6201 17.5904 4.63851 16.6557C3.65692 15.7211 2.91308 14.5652 2.46906 13.2846C2.02503 12.004 1.89368 10.6357 2.08599 9.29404C2.27829 7.95235 2.78866 6.67609 3.57451 5.57175C4.36037 4.46742 5.39893 3.56702 6.60353 2.94569C7.80814 2.32436 9.14387 2.00012 10.4993 2ZM10.4993 4C8.77537 4 7.12207 4.68482 5.90308 5.90381C4.6841 7.12279 3.99928 8.77609 3.99928 10.5C3.99928 12.2239 4.6841 13.8772 5.90308 15.0962C7.12207 16.3152 8.77537 17 10.4993 17C12.2232 17 13.8765 16.3152 15.0955 15.0962C16.3145 13.8772 16.9993 12.2239 16.9993 10.5C16.9993 8.77609 16.3145 7.12279 15.0955 5.90381C13.8765 4.68482 12.2232 4 10.4993 4ZM10.4993 5C11.958 5 13.3569 5.57946 14.3884 6.61091C15.4198 7.64236 15.9993 9.04131 15.9993 10.5C15.9993 11.9587 15.4198 13.3576 14.3884 14.3891C13.3569 15.4205 11.958 16 10.4993 16C9.04059 16 7.64164 15.4205 6.61019 14.3891C5.57874 13.3576 4.99928 11.9587 4.99928 10.5C4.99928 9.04131 5.57874 7.64236 6.61019 6.61091C7.64164 5.57946 9.04059 5 10.4993 5Z" fill="#00FFFF"/>
</g>
<defs>
<clipPath id="clip0_1_4744">
<rect width="24" height="24" fill="white"/>
</clipPath>
</defs>
</svg>
