<svg width="24" height="24" viewBox="0 0 24 24" fill="none" xmlns="http://www.w3.org/2000/svg">
<path d="M22.3745 19.44C22.5201 19.5778 22.6367 19.7434 22.7172 19.927C22.7977 20.1106 22.8406 20.3085 22.8434 20.509C22.8461 20.7094 22.8086 20.9084 22.7331 21.0942C22.6577 21.2799 22.5457 21.4486 22.4039 21.5904C22.2621 21.7321 22.0933 21.844 21.9075 21.9194C21.7218 21.9948 21.5228 22.0321 21.3223 22.0293C21.1218 22.0265 20.9239 21.9835 20.7404 21.9029C20.5568 21.8223 20.3913 21.7057 20.2535 21.56L15.6575 16.965L12.1205 20.5L4.34251 12.722C2.87286 11.252 2.03306 9.26769 2.00096 7.1893C1.96885 5.11091 2.74696 3.10163 4.17051 1.58696L4.34351 1.40796L22.3745 19.44Z" fill="#00FFFF"/>
</svg>
