<svg width="20" height="20" viewBox="0 0 20 20" fill="none" xmlns="http://www.w3.org/2000/svg">
<path d="M7.879 9.997L5.562 7.68001C4.70729 8.0423 3.75318 8.09603 2.86319 7.83198C1.97321 7.56793 1.20278 7.00255 0.683953 6.23274C0.165125 5.46294 -0.069794 4.53663 0.0194619 3.61261C0.108718 2.68858 0.51659 1.82438 1.17317 1.1681C1.82975 0.511834 2.69415 0.104369 3.61822 0.0155492C4.54229 -0.0732709 5.46848 0.162084 6.23804 0.681276C7.0076 1.20047 7.57262 1.97116 7.83625 2.86127C8.09988 3.75138 8.0457 4.70546 7.683 5.56L10 7.875L16.374 1.501C16.5597 1.3152 16.7802 1.16781 17.0229 1.06725C17.2656 0.96669 17.5258 0.914932 17.7885 0.914932C18.0512 0.914932 18.3113 0.96669 18.5541 1.06725C18.7968 1.16781 19.0173 1.3152 19.203 1.501L19.91 2.208L7.683 14.435C8.0454 15.2896 8.09927 16.2437 7.83538 17.1337C7.57149 18.0237 7.00627 18.7942 6.23658 19.3131C5.4669 19.8321 4.54068 20.0672 3.61667 19.9781C2.69266 19.8891 1.82839 19.4814 1.17199 18.825C0.515584 18.1686 0.10792 17.3043 0.0188632 16.3803C-0.0701937 15.4563 0.164901 14.5301 0.683856 13.7604C1.20281 12.9907 1.97331 12.4255 2.86331 12.1616C3.7533 11.8977 4.70737 11.9516 5.562 12.314L7.879 9.997ZM4 5.997C4.53043 5.997 5.03914 5.78629 5.41421 5.41122C5.78929 5.03615 6 4.52744 6 3.997C6 3.46657 5.78929 2.95786 5.41421 2.58279C5.03914 2.20772 4.53043 1.997 4 1.997C3.46957 1.997 2.96086 2.20772 2.58579 2.58279C2.21071 2.95786 2 3.46657 2 3.997C2 4.52744 2.21071 5.03615 2.58579 5.41122C2.96086 5.78629 3.46957 5.997 4 5.997ZM4 17.997C4.53043 17.997 5.03914 17.7863 5.41421 17.4112C5.78929 17.0361 6 16.5274 6 15.997C6 15.4666 5.78929 14.9579 5.41421 14.5828C5.03914 14.2077 4.53043 13.997 4 13.997C3.46957 13.997 2.96086 14.2077 2.58579 14.5828C2.21071 14.9579 2 15.4666 2 15.997C2 16.5274 2.21071 17.0361 2.58579 17.4112C2.96086 17.7863 3.46957 17.997 4 17.997ZM13.535 11.41L19.91 17.785L19.203 18.492C19.0173 18.6778 18.7968 18.8252 18.5541 18.9258C18.3113 19.0263 18.0512 19.0781 17.7885 19.0781C17.5258 19.0781 17.2656 19.0263 17.0229 18.9258C16.7802 18.8252 16.5597 18.6778 16.374 18.492L11.414 13.532L13.535 11.41ZM14 8.997H16V10.997H14V8.997ZM18 8.997H20V10.997H18V8.997ZM4 8.997H6V10.997H4V8.997ZM0 8.997H2V10.997H0V8.997Z" fill="#00FFFF"/>
</svg>
