<svg width="32" height="32" viewBox="0 0 32 32" fill="none" xmlns="http://www.w3.org/2000/svg">
<path d="M23.1548 2.49975C22.8849 2.55761 22.6442 2.70908 22.4753 2.92735C22.3064 3.14561 22.2201 3.41661 22.2317 3.69237V27.077C22.2043 27.2443 22.2136 27.4156 22.259 27.5789C22.3044 27.7423 22.3847 27.8938 22.4945 28.023C22.6042 28.1522 22.7408 28.256 22.8947 28.3272C23.0485 28.3984 23.216 28.4353 23.3856 28.4353C23.5551 28.4353 23.7226 28.3984 23.8765 28.3272C24.0304 28.256 24.1669 28.1522 24.2767 28.023C24.3864 27.8938 24.4668 27.7423 24.5122 27.5789C24.5575 27.4156 24.5668 27.2443 24.5394 27.077V3.69237C24.5433 3.52799 24.5125 3.36464 24.449 3.21298C24.3855 3.06132 24.2907 2.92476 24.1709 2.81221C24.051 2.69967 23.9087 2.61367 23.7534 2.55983C23.598 2.50598 23.4331 2.48552 23.2693 2.49975C23.2311 2.49789 23.1929 2.49789 23.1548 2.49975ZM8.38558 3.73052C8.1157 3.78838 7.875 3.93985 7.70606 4.15812C7.53712 4.37638 7.45085 4.64738 7.4625 4.92314V25.8462C7.43509 26.0135 7.44439 26.1848 7.48976 26.3481C7.53513 26.5115 7.61548 26.663 7.72524 26.7923C7.835 26.9215 7.97155 27.0253 8.12542 27.0964C8.2793 27.1676 8.44681 27.2045 8.61635 27.2045C8.78589 27.2045 8.9534 27.1676 9.10727 27.0964C9.26114 27.0253 9.39769 26.9215 9.50745 26.7923C9.61722 26.663 9.69757 26.5115 9.74294 26.3481C9.7883 26.1848 9.79761 26.0135 9.77019 25.8462V4.92314C9.7741 4.75876 9.74329 4.59541 9.67979 4.44375C9.61628 4.29209 9.5215 4.15553 9.40164 4.04298C9.28177 3.93044 9.13952 3.84443 8.98416 3.79059C8.82881 3.73675 8.66384 3.71628 8.50004 3.73052C8.46191 3.72865 8.42371 3.72865 8.38558 3.73052ZM19.4625 7.42283C19.1926 7.48069 18.9519 7.63216 18.783 7.85042C18.614 8.06869 18.5278 8.33968 18.5394 8.61545V22.1539C18.5114 22.3214 18.5203 22.4931 18.5653 22.6568C18.6104 22.8206 18.6906 22.9726 18.8003 23.1022C18.9101 23.2319 19.0468 23.336 19.2009 23.4075C19.355 23.4789 19.5228 23.5159 19.6927 23.5159C19.8625 23.5159 20.0303 23.4789 20.1844 23.4075C20.3385 23.336 20.4752 23.2319 20.585 23.1022C20.6947 22.9726 20.7749 22.8206 20.82 22.6568C20.8651 22.4931 20.8739 22.3214 20.8459 22.1539V8.61545C20.8498 8.4513 20.819 8.28817 20.7557 8.1367C20.6923 7.98522 20.5977 7.84878 20.4781 7.73628C20.3586 7.62377 20.2166 7.53771 20.0616 7.48371C19.9065 7.4297 19.7418 7.40896 19.5782 7.42283C19.5392 7.42088 19.5014 7.42088 19.4625 7.42283ZM4.69327 8.6536C4.4234 8.71146 4.18269 8.86293 4.01375 9.08119C3.84482 9.29946 3.75854 9.57045 3.77019 9.84622V20.9231C3.74219 21.0907 3.75102 21.2623 3.79608 21.4261C3.84114 21.5898 3.92134 21.7418 4.0311 21.8715C4.14086 22.0011 4.27754 22.1052 4.43165 22.1767C4.58575 22.2481 4.75357 22.2851 4.92342 22.2851C5.09328 22.2851 5.2611 22.2481 5.4152 22.1767C5.5693 22.1052 5.70599 22.0011 5.81575 21.8715C5.92551 21.7418 6.00571 21.5898 6.05077 21.4261C6.09582 21.2623 6.10466 21.0907 6.07665 20.9231V9.84622C6.08052 9.68207 6.04978 9.51894 5.98642 9.36747C5.92306 9.21599 5.82851 9.07955 5.70892 8.96705C5.58933 8.85454 5.44738 8.76848 5.29232 8.71447C5.13726 8.66047 4.97257 8.63973 4.80896 8.6536C4.77001 8.65165 4.73222 8.65165 4.69327 8.6536ZM12.0779 9.88437C11.808 9.94223 11.5673 10.0937 11.3984 10.312C11.2294 10.5302 11.1432 10.8012 11.1548 11.077V19.6924C11.1268 19.8599 11.1356 20.0315 11.1807 20.1953C11.2258 20.3591 11.306 20.5111 11.4157 20.6407C11.5255 20.7703 11.6622 20.8745 11.8163 20.9459C11.9704 21.0174 12.1382 21.0544 12.308 21.0544C12.4779 21.0544 12.6457 21.0174 12.7998 20.9459C12.9539 20.8745 13.0906 20.7703 13.2004 20.6407C13.3101 20.5111 13.3903 20.3591 13.4354 20.1953C13.4804 20.0315 13.4893 19.8599 13.4613 19.6924V11.077C13.4651 10.9128 13.4344 10.7497 13.371 10.5982C13.3077 10.4468 13.2131 10.3103 13.0935 10.1978C12.9739 10.0853 12.832 9.99925 12.6769 9.94524C12.5219 9.89124 12.3572 9.8705 12.1936 9.88437C12.1546 9.88242 12.1168 9.88242 12.0779 9.88437ZM26.8471 9.88437C26.5772 9.94223 26.3365 10.0937 26.1676 10.312C25.9987 10.5302 25.9124 10.8012 25.924 11.077V19.6924C25.8966 19.8597 25.9059 20.0309 25.9513 20.1943C25.9967 20.3577 26.077 20.5092 26.1868 20.6384C26.2965 20.7676 26.4331 20.8714 26.587 20.9426C26.7408 21.0138 26.9083 21.0507 27.0779 21.0507C27.2474 21.0507 27.4149 21.0138 27.5688 20.9426C27.7227 20.8714 27.8592 20.7676 27.969 20.6384C28.0788 20.5092 28.1591 20.3577 28.2045 20.1943C28.2498 20.0309 28.2591 19.8597 28.2317 19.6924V11.077C28.2356 10.9126 28.2048 10.7493 28.1413 10.5976C28.0778 10.4459 27.983 10.3094 27.8632 10.1968C27.7433 10.0843 27.6011 9.99828 27.4457 9.94444C27.2903 9.8906 27.1254 9.87013 26.9616 9.88437C26.9234 9.8825 26.8852 9.8825 26.8471 9.88437ZM1.00096 12.3459C0.731087 12.4038 0.490382 12.5552 0.321445 12.7735C0.152508 12.9918 0.0662316 13.2628 0.0778847 13.5385V17.2308C0.0504724 17.3981 0.0597728 17.5694 0.105141 17.7328C0.150509 17.8961 0.23086 18.0477 0.340624 18.1769C0.450388 18.3061 0.586938 18.4099 0.740809 18.4811C0.89468 18.5522 1.06219 18.5891 1.23173 18.5891C1.40127 18.5891 1.56878 18.5522 1.72265 18.4811C1.87652 18.4099 2.01307 18.3061 2.12284 18.1769C2.2326 18.0477 2.31295 17.8961 2.35832 17.7328C2.40369 17.5694 2.41299 17.3981 2.38558 17.2308V13.5385C2.38948 13.3741 2.35868 13.2108 2.29517 13.0591C2.23166 12.9075 2.13688 12.7709 2.01702 12.6584C1.89716 12.5458 1.7549 12.4598 1.59955 12.406C1.44419 12.3521 1.27923 12.3317 1.11542 12.3459C1.07688 12.344 1.03827 12.344 0.999731 12.3459H1.00096ZM15.7702 12.3459C15.5003 12.4038 15.2596 12.5552 15.0907 12.7735C14.9217 12.9918 14.8355 13.2628 14.8471 13.5385V17.2308C14.8191 17.3984 14.8279 17.57 14.873 17.7338C14.9181 17.8975 14.9983 18.0495 15.108 18.1791C15.2178 18.3088 15.3545 18.4129 15.5086 18.4844C15.6627 18.5558 15.8305 18.5928 16.0003 18.5928C16.1702 18.5928 16.338 18.5558 16.4921 18.4844C16.6462 18.4129 16.7829 18.3088 16.8927 18.1791C17.0024 18.0495 17.0826 17.8975 17.1277 17.7338C17.1727 17.57 17.1816 17.3984 17.1536 17.2308V13.5385C17.1574 13.3744 17.1267 13.2113 17.0633 13.0598C17 12.9083 16.9054 12.7719 16.7858 12.6594C16.6663 12.5468 16.5243 12.4608 16.3692 12.4068C16.2142 12.3528 16.0495 12.332 15.8859 12.3459C15.8469 12.344 15.8091 12.344 15.7702 12.3459ZM30.5394 12.3459C30.2695 12.4038 30.0288 12.5552 29.8599 12.7735C29.691 12.9918 29.6047 13.2628 29.6163 13.5385V17.2308C29.5889 17.3981 29.5982 17.5694 29.6436 17.7328C29.689 17.8961 29.7693 18.0477 29.8791 18.1769C29.9888 18.3061 30.1254 18.4099 30.2793 18.4811C30.4331 18.5522 30.6007 18.5891 30.7702 18.5891C30.9397 18.5891 31.1072 18.5522 31.2611 18.4811C31.415 18.4099 31.5515 18.3061 31.6613 18.1769C31.7711 18.0477 31.8514 17.8961 31.8968 17.7328C31.9422 17.5694 31.9515 17.3981 31.924 17.2308V13.5385C31.9279 13.3741 31.8971 13.2108 31.8336 13.0591C31.7701 12.9075 31.6753 12.7709 31.5555 12.6584C31.4356 12.5458 31.2934 12.4598 31.138 12.406C30.9827 12.3521 30.8177 12.3317 30.6539 12.3459C30.6158 12.344 30.5776 12.344 30.5394 12.3459Z" fill="#00FFFF"/>
</svg>
